<?xml version="1.0" encoding="UTF-8" standalone="no"?>
<svg width="261px" height="99px" viewBox="0 0 261 99" version="1.1" xmlns="http://www.w3.org/2000/svg" xmlns:xlink="http://www.w3.org/1999/xlink" xmlns:sketch="http://www.bohemiancoding.com/sketch/ns">
    <!-- Generator: Sketch 3.2.2 (9983) - http://www.bohemiancoding.com/sketch -->
    <title>logo</title>
    <desc>Created with Sketch.</desc>
    <defs></defs>
    <g id="Page-1" stroke="none" stroke-width="1" fill="none" fill-rule="evenodd" sketch:type="MSPage">
        <g id="logo" sketch:type="MSLayerGroup" fill="#FFFFFF">
            <g id="Group" transform="translate(78.417040, 1.757396)" sketch:type="MSShapeGroup">
                <ellipse id="Oval" cx="52.6681614" cy="47.4497041" rx="9.3632287" ry="9.37278107"></ellipse>
                <path d="M154.148533,30.026574 C137.513929,26.1967118 115.138318,24.0177515 91.2914798,24.0177515 C67.4446416,24.0177515 45.0690307,26.1967118 28.4344265,30.026574 C10.423637,34.1732818 0,39.847241 0,47.7426036 C0,55.6379661 10.423637,61.3119253 28.4344265,65.4586331 C45.0690307,69.2884953 67.4446416,71.4674556 91.2914798,71.4674556 C115.138318,71.4674556 137.513929,69.2884953 154.148533,65.4586331 C172.159323,61.3119253 182.58296,55.6379661 182.58296,47.7426036 C182.58296,39.847241 172.159323,34.1732818 154.148533,30.026574 Z M170.496169,52.5214798 C166.408509,54.7465397 160.291332,56.8312255 152.574474,58.6079138 C136.497575,62.3093729 114.64017,64.4378698 91.2914798,64.4378698 C67.9427899,64.4378698 46.0853851,62.3093729 30.0084861,58.6079138 C22.2916273,56.8312255 16.1744505,54.7465397 12.0867904,52.5214798 C8.56617366,50.605082 7.02242152,48.8681622 7.02242152,47.7426036 C7.02242152,46.6170449 8.56617366,44.8801251 12.0867904,42.9637273 C16.1744505,40.7386674 22.2916273,38.6539816 30.0084861,36.8772933 C46.0853851,33.1758342 67.9427899,31.0473373 91.2914798,31.0473373 C114.64017,31.0473373 136.497575,33.1758342 152.574474,36.8772933 C160.291332,38.6539816 166.408509,40.7386674 170.496169,42.9637273 C174.016786,44.8801251 175.560538,46.6170449 175.560538,47.7426036 C175.560538,48.8681622 174.016786,50.605082 170.496169,52.5214798 Z" id="Oval"></path>
                <path d="M26.3340807,93.1082032 C37.7711723,99.7181478 57.4459849,83.6865386 71.926547,58.5798817 C86.4071091,33.4732247 90.4393338,8.40114957 79.0022422,1.79120504 C67.5651505,-4.81873948 47.890338,11.2128697 33.4097759,36.3195266 C18.9292138,61.4261836 14.8969891,86.4982587 26.3340807,93.1082032 Z M60.7968025,13.4149546 C67.388967,8.04346745 72.7564336,6.29857342 75.4910314,7.87900492 C78.2256292,9.45943642 79.39978,14.9849881 78.0487589,23.3855379 C76.5634642,32.6209905 72.2501459,43.9596485 65.8449515,55.0650888 C59.4397572,66.1705291 51.7868582,75.5791121 44.5395203,81.4844537 C37.9473559,86.8559408 32.5798893,88.6008349 29.8452915,87.0204034 C27.1106937,85.4399719 25.9365428,79.9144202 27.287564,71.5138704 C28.7728587,62.2784178 33.086177,50.9397598 39.4913713,39.8343195 C45.8965657,28.7288792 53.5494647,19.3202962 60.7968025,13.4149546 Z" id="Oval"></path>
                <path d="M79.0022422,93.1082032 C90.4393338,86.4982587 86.4071091,61.4261836 71.926547,36.3195266 C57.4459849,11.2128697 37.7711723,-4.81873948 26.3340807,1.79120504 C14.8969891,8.40114957 18.9292138,33.4732247 33.4097759,58.5798817 C47.890338,83.6865386 67.5651505,99.7181478 79.0022422,93.1082032 Z M27.287564,23.3855379 C25.9365428,14.9849881 27.1106937,9.45943642 29.8452915,7.87900492 C32.5798893,6.29857342 37.9473559,8.04346745 44.5395203,13.4149546 C51.7868582,19.3202962 59.4397572,28.7288792 65.8449515,39.8343195 C72.2501459,50.9397598 76.5634642,62.2784178 78.0487589,71.5138704 C79.39978,79.9144202 78.2256292,85.4399719 75.4910314,87.0204034 C72.7564336,88.6008349 67.388967,86.8559408 60.7968025,81.4844537 C53.5494647,75.5791121 45.8965657,66.1705291 39.4913713,55.0650888 C33.086177,43.9596485 28.7728587,32.6209905 27.287564,23.3855379 Z" id="Oval"></path>
            </g>
            <g id="Oval-+-Oval-+-Oval" transform="translate(169.708520, 1.757396)" sketch:type="MSShapeGroup">
                <ellipse id="Oval" cx="33.3565022" cy="47.4497041" rx="9.3632287" ry="9.37278107"></ellipse>
                <path d="M7.02242152,93.1082032 C18.4595132,99.7181478 38.1343257,83.6865386 52.6148878,58.5798817 C67.0954499,33.4732247 71.1276746,8.40114957 59.690583,1.79120504 C48.2534913,-4.81873948 28.5786788,11.2128697 14.0981167,36.3195266 C-0.382445385,61.4261836 -4.41467011,86.4982587 7.02242152,93.1082032 Z M41.4851434,13.4149546 C48.0773078,8.04346745 53.4447744,6.29857342 56.1793722,7.87900492 C58.91397,9.45943642 60.0881208,14.9849881 58.7370997,23.3855379 C57.251805,32.6209905 52.9384867,43.9596485 46.5332924,55.0650888 C40.128098,66.1705291 32.475199,75.5791121 25.2278611,81.4844537 C18.6356967,86.8559408 13.2682301,88.6008349 10.5336323,87.0204034 C7.79903447,85.4399719 6.62488364,79.9144202 7.97590482,71.5138704 C9.46119952,62.2784178 13.7745178,50.9397598 20.1797121,39.8343195 C26.5849065,28.7288792 34.2378055,19.3202962 41.4851434,13.4149546 Z" id="Oval"></path>
                <path d="M59.690583,93.1082032 C71.1276746,86.4982587 67.0954499,61.4261836 52.6148878,36.3195266 C38.1343257,11.2128697 18.4595132,-4.81873948 7.02242152,1.79120504 C-4.41467011,8.40114957 -0.382445385,33.4732247 14.0981167,58.5798817 C28.5786788,83.6865386 48.2534913,99.7181478 59.690583,93.1082032 Z M7.97590482,23.3855379 C6.62488364,14.9849881 7.79903447,9.45943642 10.5336323,7.87900492 C13.2682301,6.29857342 18.6356967,8.04346745 25.2278611,13.4149546 C32.475199,19.3202962 40.128098,28.7288792 46.5332924,39.8343195 C52.9384867,50.9397598 57.251805,62.2784178 58.7370997,71.5138704 C60.0881208,79.9144202 58.91397,85.4399719 56.1793722,87.0204034 C53.4447744,88.6008349 48.0773078,86.8559408 41.4851434,81.4844537 C34.2378055,75.5791121 26.5849065,66.1705291 20.1797121,55.0650888 C13.7745178,43.9596485 9.46119952,32.6209905 7.97590482,23.3855379 Z" id="Oval"></path>
            </g>
            <path d="M66.7454157,16.2258645 L66.7454157,0.092965105 L12.8861435,0.092965105 L3.38156606,53.4556324 L21.0132459,53.4556324 C22.9417206,50.7897838 25.0079124,48.8363896 27.2118834,47.5953911 C29.4158544,46.3543927 32.2626076,45.7339027 35.7522284,45.7339027 C38.41536,45.7339027 40.7570441,46.1935249 42.7773508,47.112783 C44.7976576,48.0320412 46.5424418,49.3189832 48.0117558,50.9736479 C49.4810698,52.6283125 50.5830388,54.5587256 51.3176958,56.7649451 C52.0523528,58.9711646 52.4196758,61.3152376 52.4196758,63.7972346 C52.4196758,66.1873057 52.0293951,68.5083976 51.248822,70.76058 C50.4682489,73.0127624 49.36628,74.9891378 47.942882,76.6897653 C46.5194841,78.3903928 44.7746999,79.7692593 42.7084771,80.8264062 C40.6422542,81.883553 38.3235279,82.4121185 35.7522284,82.4121185 C31.3442863,82.4121185 27.7169718,81.1021953 24.8701759,78.4823097 C22.02338,75.862424 20.3704266,72.3463144 19.911266,67.9338754 L0.351121076,67.9338754 C0.442953201,72.9897951 1.47604911,77.425149 3.45043981,81.2400702 C5.4248305,85.0549915 8.0649645,88.2493655 11.370921,90.8232883 C14.6768775,93.397211 18.4648959,95.304643 22.7350897,96.5456415 C27.0052835,97.7866399 31.4820325,98.4071299 36.1654709,98.4071299 C41.0325735,98.4990557 45.6241109,97.6947169 49.9402208,95.9940894 C54.2563307,94.2934618 58.044349,91.8804455 61.3043894,88.7549678 C64.5644299,85.6294902 67.1586485,81.9295318 69.0871231,77.6549815 C71.0155978,73.3804312 71.9798206,68.7612284 71.9798206,63.7972346 C71.9798206,59.2928698 71.3140477,55.0413647 69.9824819,51.0425919 C68.6509161,47.043819 66.7224704,43.5736717 64.1970869,40.6320457 C61.6717035,37.6904197 58.5724157,35.3463466 54.8991307,33.5997562 C51.2258457,31.8531657 47.0016313,30.9798836 42.2263608,30.9798836 C38.3694116,30.9798836 34.9257585,31.5544113 31.8952984,32.703484 C28.8648382,33.8525566 26.0180851,35.7599886 23.3549534,38.4258372 L23.0794584,38.1500611 L26.9363884,16.2258645 L66.7454157,16.2258645 Z" id="5" sketch:type="MSShapeGroup"></path>
        </g>
    </g>
</svg>