<?xml version="1.0" encoding="UTF-8" standalone="no"?>
<svg width="260px" height="100px" viewBox="0 0 260 100" version="1.1" xmlns="http://www.w3.org/2000/svg" xmlns:xlink="http://www.w3.org/1999/xlink" xmlns:sketch="http://www.bohemiancoding.com/sketch/ns">
    <!-- Generator: Sketch 3.2.2 (9983) - http://www.bohemiancoding.com/sketch -->
    <title>logo</title>
    <desc>Created with Sketch.</desc>
    <defs></defs>
    <g id="Page-1" stroke="none" stroke-width="1" fill="none" fill-rule="evenodd" sketch:type="MSPage">
        <g id="logo" sketch:type="MSLayerGroup" fill="#FFFFFF">
            <g id="Group" transform="translate(78.116592, 1.775148)" sketch:type="MSShapeGroup">
                <ellipse id="Oval" cx="52.4663677" cy="47.9289941" rx="9.32735426" ry="9.46745562"></ellipse>
                <path d="M153.557926,30.3298727 C136.987056,26.4613251 114.697175,24.260355 90.941704,24.260355 C67.186233,24.260355 44.8963524,26.4613251 28.3254824,30.3298727 C10.3836997,34.5184664 0,40.2497384 0,48.2248521 C0,56.1999658 10.3836997,61.9312377 28.3254824,66.1198314 C44.8963524,69.9883791 67.186233,72.1893491 90.941704,72.1893491 C114.697175,72.1893491 136.987056,69.9883791 153.557926,66.1198314 C171.499708,61.9312377 181.883408,56.1999658 181.883408,48.2248521 C181.883408,40.2497384 171.499708,34.5184664 153.557926,30.3298727 Z M169.842927,53.0519998 C165.770929,55.2995351 159.677189,57.4052783 151.989897,59.1999129 C135.974595,62.9387605 114.200935,65.0887574 90.941704,65.0887574 C67.6824727,65.0887574 45.9088127,62.9387605 29.8935111,59.1999129 C22.2062187,57.4052783 16.1124794,55.2995351 12.0404808,53.0519998 C8.53335307,51.1162444 6.9955157,49.36178 6.9955157,48.2248521 C6.9955157,47.0879241 8.53335307,45.3334597 12.0404808,43.3977043 C16.1124794,41.1501691 22.2062187,39.0444258 29.8935111,37.2497912 C45.9088127,33.5109436 67.6824727,31.3609467 90.941704,31.3609467 C114.200935,31.3609467 135.974595,33.5109436 151.989897,37.2497912 C159.677189,39.0444258 165.770929,41.1501691 169.842927,43.3977043 C173.350055,45.3334597 174.887892,47.0879241 174.887892,48.2248521 C174.887892,49.36178 173.350055,51.1162444 169.842927,53.0519998 Z" id="Oval"></path>
                <path d="M26.2331839,94.0486901 C37.6264552,100.725402 57.2258853,84.5318572 71.6509663,59.1715976 C86.0760473,33.8113381 90.0928229,8.48600966 78.6995516,1.80929802 C67.3062802,-4.86741362 47.7068501,11.326131 33.2817691,36.6863905 C18.8566881,62.0466501 14.8399125,87.3719785 26.2331839,94.0486901 Z M60.5638646,13.5504592 C67.1307717,8.1247146 72.4776733,6.36219538 75.2017937,7.95859083 C77.9259142,9.55498629 79.0955663,15.1363516 77.7497215,23.6217554 C76.2701175,32.9504955 71.9733254,44.4036853 65.592672,55.6213018 C59.2120186,66.8389182 51.5884411,76.3425375 44.3688708,82.3075289 C37.8019637,87.7332736 32.4550621,89.4957928 29.7309417,87.8993973 C27.0068213,86.3030019 25.8371691,80.7216365 27.183014,72.2362327 C28.6626179,62.9074927 32.95941,51.4543029 39.3400634,40.2366864 C45.7207168,29.0190699 53.3442943,19.5154507 60.5638646,13.5504592 Z" id="Oval"></path>
                <path d="M78.6995516,94.0486901 C90.0928229,87.3719785 86.0760473,62.0466501 71.6509663,36.6863905 C57.2258853,11.326131 37.6264552,-4.86741362 26.2331839,1.80929802 C14.8399125,8.48600966 18.8566881,33.8113381 33.2817691,59.1715976 C47.7068501,84.5318572 67.3062802,100.725402 78.6995516,94.0486901 Z M27.183014,23.6217554 C25.8371691,15.1363516 27.0068213,9.55498629 29.7309417,7.95859083 C32.4550621,6.36219538 37.8019637,8.1247146 44.3688708,13.5504592 C51.5884411,19.5154507 59.2120186,29.0190699 65.592672,40.2366864 C71.9733254,51.4543029 76.2701175,62.9074927 77.7497215,72.2362327 C79.0955663,80.7216365 77.9259142,86.3030019 75.2017937,87.8993973 C72.4776733,89.4957928 67.1307717,87.7332736 60.5638646,82.3075289 C53.3442943,76.3425375 45.7207168,66.8389182 39.3400634,55.6213018 C32.95941,44.4036853 28.6626179,32.9504955 27.183014,23.6217554 Z" id="Oval"></path>
            </g>
            <g id="Oval-+-Oval-+-Oval" transform="translate(169.058296, 1.775148)" sketch:type="MSShapeGroup">
                <ellipse id="Oval" cx="33.2286996" cy="47.9289941" rx="9.32735426" ry="9.46745562"></ellipse>
                <path d="M6.9955157,94.0486901 C18.3887871,100.725402 37.9882172,84.5318572 52.4132982,59.1715976 C66.8383792,33.8113381 70.8551548,8.48600966 59.4618834,1.80929802 C48.0686121,-4.86741362 28.4691819,11.326131 14.0441009,36.6863905 C-0.380980077,62.0466501 -4.39775566,87.3719785 6.9955157,94.0486901 Z M41.3261964,13.5504592 C47.8931035,8.1247146 53.2400051,6.36219538 55.9641256,7.95859083 C58.688246,9.55498629 59.8578982,15.1363516 58.5120533,23.6217554 C57.0324494,32.9504955 52.7356573,44.4036853 46.3550039,55.6213018 C39.9743505,66.8389182 32.350773,76.3425375 25.1312027,82.3075289 C18.5642956,87.7332736 13.217394,89.4957928 10.4932735,87.8993973 C7.76915311,86.3030019 6.59950095,80.7216365 7.94534579,72.2362327 C9.42494972,62.9074927 13.7217418,51.4543029 20.1023952,40.2366864 C26.4830486,29.0190699 34.1066262,19.5154507 41.3261964,13.5504592 Z" id="Oval"></path>
                <path d="M59.4618834,94.0486901 C70.8551548,87.3719785 66.8383792,62.0466501 52.4132982,36.6863905 C37.9882172,11.326131 18.3887871,-4.86741362 6.9955157,1.80929802 C-4.39775566,8.48600966 -0.380980077,33.8113381 14.0441009,59.1715976 C28.4691819,84.5318572 48.0686121,100.725402 59.4618834,94.0486901 Z M7.94534579,23.6217554 C6.59950095,15.1363516 7.76915311,9.55498629 10.4932735,7.95859083 C13.217394,6.36219538 18.5642956,8.1247146 25.1312027,13.5504592 C32.350773,19.5154507 39.9743505,29.0190699 46.3550039,40.2366864 C52.7356573,51.4543029 57.0324494,62.9074927 58.5120533,72.2362327 C59.8578982,80.7216365 58.688246,86.3030019 55.9641256,87.8993973 C53.2400051,89.4957928 47.8931035,87.7332736 41.3261964,82.3075289 C34.1066262,76.3425375 26.4830486,66.8389182 20.1023952,55.6213018 C13.7217418,44.4036853 9.42494972,32.9504955 7.94534579,23.6217554 Z" id="Oval"></path>
            </g>
            <path d="M66.4896861,16.3897621 L66.4896861,0.0939041465 L12.8367713,0.0939041465 L3.36860987,53.9955883 L20.9327354,53.9955883 C22.8538213,51.3028119 24.9120966,49.3296865 27.1076233,48.0761527 C29.30315,46.8226189 32.1389961,46.1958614 35.6152466,46.1958614 C38.2681747,46.1958614 40.6008868,46.6601262 42.6134529,47.5886697 C44.626019,48.5172133 46.3641182,49.8171548 47.8278027,51.4885332 C49.2914871,53.1599116 50.389234,55.1098238 51.1210762,57.3383284 C51.8529185,59.5668329 52.2188341,61.9345835 52.2188341,64.4416511 C52.2188341,66.8558643 51.8300487,69.2004016 51.0524664,71.4753334 C50.274884,73.7502651 49.1771371,75.7466038 47.7591928,77.4644094 C46.3412485,79.182215 44.6031493,80.5750094 42.544843,81.6428345 C40.4865368,82.7106596 38.1766944,83.2445641 35.6152466,83.2445641 C31.2241933,83.2445641 27.6107765,81.9214094 24.7748879,79.2750603 C21.9389993,76.6287111 20.292379,73.0770853 19.8349776,68.6200762 L0.349775785,68.6200762 C0.441256063,73.7270658 1.47039375,78.2072212 3.43721973,82.060677 C5.40404571,85.9141328 8.03406425,89.1407733 11.3273543,91.7406952 C14.6206443,94.3406172 18.3941491,96.2673162 22.6479821,97.52085 C26.901815,98.7743838 31.3614117,99.4011413 36.0269058,99.4011413 C40.8753606,99.4939956 45.4493059,98.6815322 49.7488789,96.9637266 C54.048452,95.245921 57.8219569,92.8085308 61.0695067,89.6514827 C64.3170566,86.4944346 66.9013357,82.7571028 68.8224215,78.4393752 C70.7435074,74.1216477 71.7040359,69.4557863 71.7040359,64.4416511 C71.7040359,59.8917876 71.0408138,55.5973381 69.7143498,51.5581736 C68.3878857,47.5190091 66.4668287,44.0138098 63.9511211,41.0424704 C61.4354134,38.071131 58.3480004,35.7033804 54.6887892,33.9391477 C51.0295781,32.1749149 46.8215484,31.2928117 42.064574,31.2928117 C38.2224023,31.2928117 34.7919433,31.8731428 31.7730942,33.0338222 C28.754245,34.1945017 25.9183989,36.1212007 23.2654709,38.813977 L22.9910314,38.5354153 L26.8331839,16.3897621 L66.4896861,16.3897621 Z" id="5" sketch:type="MSShapeGroup"></path>
        </g>
    </g>
</svg>