<?xml version="1.0" encoding="UTF-8" standalone="no"?>
<svg width="80px" height="32px" viewBox="0 0 80 32" version="1.1" xmlns="http://www.w3.org/2000/svg" xmlns:xlink="http://www.w3.org/1999/xlink" xmlns:sketch="http://www.bohemiancoding.com/sketch/ns">
    <!-- Generator: Sketch 3.3.3 (12072) - http://www.bohemiancoding.com/sketch -->
    <title>logo</title>
    <desc>Created with Sketch.</desc>
    <defs></defs>
    <g id="Page-1" stroke="none" stroke-width="1" fill="none" fill-rule="evenodd" sketch:type="MSPage">
        <g id="Artboard-1" sketch:type="MSArtboardGroup" transform="translate(-14.000000, -12.000000)" fill="#FFFFFF">
            <g id="logo" sketch:type="MSLayerGroup" transform="translate(14.000000, 12.000000)">
                <ellipse id="Oval" sketch:type="MSShapeGroup" cx="39.1493691" cy="16.0631367" rx="2.88474874" ry="2.92807906"></ellipse>
                <path d="M70.4147994,10.6201095 C65.289788,9.42365144 58.3960104,8.74293907 51.0489575,8.74293907 C43.7019046,8.74293907 36.808127,9.42365144 31.6831157,10.6201095 C26.1341108,11.9155508 22.9226573,13.6881092 22.9226573,16.1546392 C22.9226573,18.6211692 26.1341108,20.3937275 31.6831157,21.6891689 C36.808127,22.8856269 43.7019046,23.5663393 51.0489575,23.5663393 C58.3960104,23.5663393 65.289788,22.8856269 70.4147994,21.6891689 C75.9638041,20.3937275 79.1752577,18.6211692 79.1752577,16.1546392 C79.1752577,13.6881092 75.9638041,11.9155508 70.4147994,10.6201095 L70.4147994,10.6201095 L70.4147994,10.6201095 Z M75.4513976,17.6475715 C74.1920168,18.3426855 72.3073549,18.9939462 69.929842,19.5489879 C64.9766558,20.7053325 58.2425341,21.37028 51.0489575,21.37028 C43.8553809,21.37028 37.1212593,20.7053325 32.1680731,19.5489879 C29.79056,18.9939462 27.9058983,18.3426855 26.6465174,17.6475715 C25.5618387,17.0488842 25.0862188,16.5062664 25.0862188,16.1546392 C25.0862188,15.803012 25.5618387,15.2603941 26.6465174,14.6617069 C27.9058983,13.9665929 29.79056,13.3153321 32.1680731,12.7602905 C37.1212593,11.6039458 43.8553809,10.9389984 51.0489575,10.9389984 C58.2425341,10.9389984 64.9766558,11.6039458 69.929842,12.7602905 C72.3073549,13.3153321 74.1920168,13.9665929 75.4513976,14.6617069 C76.5360764,15.2603941 77.0116961,15.803012 77.0116961,16.1546392 C77.0116961,16.5062664 76.5360764,17.0488842 75.4513976,17.6475715 L75.4513976,17.6475715 L75.4513976,17.6475715 Z" id="Shape" sketch:type="MSShapeGroup"></path>
                <path d="M31.0360132,30.3269602 C34.5597053,32.3919227 40.6213846,27.3836098 45.0827499,19.5402306 C49.5441152,11.6968513 50.786417,3.86427554 47.2627246,1.79931318 C43.7390326,-0.26564918 37.6773532,4.74266358 33.2159879,12.5860428 C28.7546227,20.4294221 27.5123209,28.2619979 31.0360132,30.3269602 L31.0360132,30.3269602 L31.0360132,30.3269602 Z M41.6537496,5.43060016 C43.6847518,3.7525348 45.3384325,3.20742576 46.1809441,3.70115632 C47.0234555,4.19488687 47.3852035,5.92108235 46.9689628,8.54543404 C46.5113533,11.4306114 45.1824486,14.972835 43.2090507,18.4422009 C41.2356529,21.9115669 38.8778453,24.8508305 36.6449886,26.6956733 C34.6139864,28.3737386 32.9603054,28.9188476 32.117794,28.4251171 C31.2752824,27.9313865 30.9135343,26.2051911 31.3297751,23.5808394 C31.7873845,20.695662 33.1162893,17.1534384 35.0896871,13.6840725 C37.0630853,10.2147066 39.4208926,7.27544287 41.6537496,5.43060016 L41.6537496,5.43060016 L41.6537496,5.43060016 Z" id="Shape" sketch:type="MSShapeGroup"></path>
                <path d="M47.2627246,30.3269602 C50.786417,28.2619979 49.5441152,20.4294221 45.0827499,12.5860428 C40.6213846,4.74266358 34.5597053,-0.26564918 31.0360132,1.79931318 C27.5123209,3.86427554 28.7546227,11.6968513 33.2159879,19.5402306 C37.6773532,27.3836098 43.7390326,32.3919227 47.2627246,30.3269602 L47.2627246,30.3269602 L47.2627246,30.3269602 Z M31.3297751,8.54543404 C30.9135343,5.92108235 31.2752824,4.19488687 32.117794,3.70115632 C32.9603054,3.20742576 34.6139864,3.7525348 36.6449886,5.43060016 C38.8778453,7.27544287 41.2356529,10.2147066 43.2090507,13.6840725 C45.1824486,17.1534384 46.5113533,20.695662 46.9689628,23.5808394 C47.3852035,26.2051911 47.0234555,27.9313865 46.1809441,28.4251171 C45.3384325,28.9188476 43.6847518,28.3737386 41.6537496,26.6956733 C39.4208926,24.8508305 37.0630853,21.9115669 35.0896871,18.4422009 C33.1162893,14.972835 31.7873845,11.4306114 31.3297751,8.54543404 L31.3297751,8.54543404 L31.3297751,8.54543404 Z" id="Shape" sketch:type="MSShapeGroup"></path>
                <ellipse id="Oval" sketch:type="MSShapeGroup" cx="61.3258751" cy="16.0631367" rx="2.88474874" ry="2.92807906"></ellipse>
                <path d="M53.2125192,30.3269602 C56.7362112,32.3919227 62.7978906,27.3836098 67.2592559,19.5402306 C71.7206211,11.6968513 72.962923,3.86427554 69.4392306,1.79931318 C65.9155386,-0.26564918 59.8538592,4.74266358 55.3924939,12.5860428 C50.9311287,20.4294221 49.6888268,28.2619979 53.2125192,30.3269602 L53.2125192,30.3269602 L53.2125192,30.3269602 Z M63.8302553,5.43060016 C65.8612574,3.7525348 67.5149385,3.20742576 68.3574501,3.70115632 C69.1999614,4.19488687 69.5617095,5.92108235 69.1454688,8.54543404 C68.6878593,11.4306114 67.3589545,14.972835 65.3855567,18.4422009 C63.4121586,21.9115669 61.0543512,24.8508305 58.8214945,26.6956733 C56.7904924,28.3737386 55.1368113,28.9188476 54.2943,28.4251171 C53.4517884,27.9313865 53.0900403,26.2051911 53.506281,23.5808394 C53.9638905,20.695662 55.2927953,17.1534384 57.2661931,13.6840725 C59.2395912,10.2147066 61.5973986,7.27544287 63.8302553,5.43060016 L63.8302553,5.43060016 L63.8302553,5.43060016 Z" id="Shape" sketch:type="MSShapeGroup"></path>
                <path d="M69.4392306,30.3269602 C72.962923,28.2619979 71.7206211,20.4294221 67.2592559,12.5860428 C62.7978906,4.74266358 56.7362112,-0.26564918 53.2125192,1.79931318 C49.6888268,3.86427554 50.9311287,11.6968513 55.3924939,19.5402306 C59.8538592,27.3836098 65.9155386,32.3919227 69.4392306,30.3269602 L69.4392306,30.3269602 L69.4392306,30.3269602 Z M53.506281,8.54543404 C53.0900403,5.92108235 53.4517884,4.19488687 54.2943,3.70115632 C55.1368113,3.20742576 56.7904924,3.7525348 58.8214945,5.43060016 C61.0543512,7.27544287 63.4121586,10.2147066 65.3855567,13.6840725 C67.3589545,17.1534384 68.6878593,20.695662 69.1454688,23.5808394 C69.5617095,26.2051911 69.1999614,27.9313865 68.3574501,28.4251171 C67.5149385,28.9188476 65.8612574,28.3737386 63.8302553,26.6956733 C61.5973986,24.8508305 59.2395912,21.9115669 57.2661931,18.4422009 C55.2927953,14.972835 53.9638905,11.4306114 53.506281,8.54543404 L53.506281,8.54543404 L53.506281,8.54543404 Z" id="Shape" sketch:type="MSShapeGroup"></path>
                <path d="M12.6675321,9.81934308 L12.6675321,9.81934308 C9.73014528,9.39616024 6.76786537,10.1678466 4.40302007,11.9850435 L4.22876831,12.084616 L4.22876831,3.91967637 L18.3431608,3.91967637 C18.6916643,3.91967637 19.065061,3.89478327 19.0899541,2.40119676 C19.1148472,0.957396466 18.5423057,0.957396466 18.2435884,0.957396466 L2.80986113,0.957396466 C1.91370922,0.957396466 1.54031259,1.57972418 1.54031259,2.30162432 L1.54031259,15.7936891 C1.54031259,16.465803 1.96349544,16.6649479 2.7351818,16.8391997 C3.43218884,16.9885583 3.83047857,16.913879 4.12919588,16.5653755 L4.15408898,16.5155893 C5.64767549,14.3747819 8.85888648,12.3086539 11.9207388,12.6820506 C15.6049189,13.1052334 18.5423057,16.0426202 18.9654885,19.6023347 C19.2144196,21.8925007 18.5174126,24.0830942 16.998933,25.7758256 C15.5053464,27.4436639 13.339646,28.4144951 11.0992662,28.4144951 C7.81337593,28.4144951 4.90088224,26.3483671 3.65622681,23.1869423 C3.55665438,22.9131181 3.40729573,22.6890802 2.95921978,22.6890802 C2.7351818,22.6890802 2.41157139,22.7637595 1.96349544,22.9131181 C0.768626233,23.336301 0.768626233,23.8341631 0.917984883,24.2075598 C2.48625072,28.4891744 6.56872051,31.3518819 11.0992662,31.3518819 C14.1611186,31.3518819 17.0985054,30.0325472 19.1646334,27.7423812 C21.2307614,25.4273221 22.2015926,22.415256 21.8530891,19.3036174 C21.3054407,14.399675 17.5216882,10.5163501 12.6675321,9.81934308 L12.6675321,9.81934308 Z" id="Shape" sketch:type="MSShapeGroup"></path>
            </g>
        </g>
    </g>
</svg>